<svg xmlns="http://www.w3.org/2000/svg" viewBox="0 0 64 64" fill="none">
  <defs>
    <linearGradient id="g" x1="0" y1="0" x2="1" y2="1">
      <stop offset="0" stop-color="#e5e7eb"/>
      <stop offset="1" stop-color="#9ca3af"/>
    </linearGradient>
  </defs>
  <rect width="64" height="64" rx="12" fill="#0b0c10"/>
  <path fill="url(#g)" d="M32 6c7.6 5.2 15.2 7.9 22.8 8.4v15.3c0 6.8-3.2 12.8-8.6 17.3C41.8 51.8 37.1 54 32 56c-5.1-2-9.8-4.2-14.2-9-5.4-4.5-8.6-10.5-8.6-17.3V14.4C16.8 13.9 24.4 11.2 32 6Zm0 9.2c-4.8 2.8-9.7 4.6-14.6 5.2v9.8c0 4.7 2.2 8.9 6.1 12 2.6 2.5 5.3 4 8.5 5.3 3.2-1.3 5.9-2.8 8.5-5.3 3.9-3.1 6.1-7.3 6.1-12v-9.8c-4.9-.6-9.8-2.4-14.6-5.2Z"/>
  <path fill="#0b0c10" d="M24 24h16v4H24zm0 8h16v4H24z"/>
</svg>
